<svg width="33" height="33" viewBox="0 0 33 33" fill="none" xmlns="http://www.w3.org/2000/svg">
<mask id="path-1-inside-1_496_781" fill="white">
<path fill-rule="evenodd" clip-rule="evenodd" d="M16.5 30C25.6127 30 33 23.2843 33 15C33 6.71573 25.6127 0 16.5 0C7.3873 0 0 6.71573 0 15C0 18.073 1.01649 20.9302 2.76047 23.3088L1.81678 32.8865L10.4692 28.9665C12.3373 29.6336 14.3716 30 16.5 30Z"/>
</mask>
<path fill-rule="evenodd" clip-rule="evenodd" d="M16.5 30C25.6127 30 33 23.2843 33 15C33 6.71573 25.6127 0 16.5 0C7.3873 0 0 6.71573 0 15C0 18.073 1.01649 20.9302 2.76047 23.3088L1.81678 32.8865L10.4692 28.9665C12.3373 29.6336 14.3716 30 16.5 30Z" fill="white"/>
<path d="M2.76047 23.3088L5.74601 23.6029L5.85856 22.4606L5.17985 21.5349L2.76047 23.3088ZM1.81678 32.8865L-1.16876 32.5923L-1.67827 37.7634L3.0548 35.6191L1.81678 32.8865ZM10.4692 28.9665L11.4782 26.1412L10.336 25.7333L9.23121 26.2338L10.4692 28.9665ZM30 15C30 21.3648 24.2313 27 16.5 27V33C26.9941 33 36 25.2038 36 15H30ZM16.5 3C24.2313 3 30 8.63525 30 15H36C36 4.79621 26.9941 -3 16.5 -3V3ZM3 15C3 8.63525 8.76868 3 16.5 3V-3C6.00592 -3 -3 4.79621 -3 15H3ZM5.17985 21.5349C3.78823 19.6369 3 17.3942 3 15H-3C-3 18.7518 -1.75525 22.2234 0.341088 25.0827L5.17985 21.5349ZM4.80232 33.1806L5.74601 23.6029L-0.225076 23.0146L-1.16876 32.5923L4.80232 33.1806ZM9.23121 26.2338L0.578764 30.1538L3.0548 35.6191L11.7072 31.6991L9.23121 26.2338ZM16.5 27C14.7169 27 13.0238 26.6932 11.4782 26.1412L9.46022 31.7917C11.6507 32.574 14.0263 33 16.5 33V27Z" fill="#DAC081" mask="url(#path-1-inside-1_496_781)"/>
</svg>
