<svg width="30" height="29" viewBox="0 0 30 29" fill="none" xmlns="http://www.w3.org/2000/svg">
<path d="M28.5 14.5C28.5 21.6322 22.5042 27.5 15 27.5C7.49582 27.5 1.5 21.6322 1.5 14.5C1.5 7.36782 7.49582 1.5 15 1.5C22.5042 1.5 28.5 7.36782 28.5 14.5Z" fill="white" stroke="#DAC081" stroke-width="3"/>
<path d="M4.3421 24.4211C12.5487 12.2094 17.6068 11.9087 26.0526 24.0395" stroke="#DAC081" stroke-width="3"/>
<path d="M18.2368 10.3026C18.2368 11.627 16.9633 13 15 13C13.0367 13 11.7632 11.627 11.7632 10.3026C11.7632 8.97821 13.0367 7.60522 15 7.60522C16.9633 7.60522 18.2368 8.97821 18.2368 10.3026Z" fill="white" stroke="#DAC081" stroke-width="3"/>
</svg>
